<?xml version="1.0" encoding="utf-8"?>
<!-- Generator: Adobe Illustrator 28.0.0, SVG Export Plug-In . SVG Version: 6.00 Build 0)  -->
<svg version="1.1" xmlns="http://www.w3.org/2000/svg" xmlns:xlink="http://www.w3.org/1999/xlink" x="0px" y="0px"
	 viewBox="0 0 62.4 68.3" style="enable-background:new 0 0 62.4 68.3;" xml:space="preserve">
<style type="text/css">
	.st0{display:none;}
	.st1{display:inline;}
	.st2{fill:none;stroke:#061F2F;stroke-miterlimit:10;}
	.st3{fill:#061F2F;}
</style>
<g id="Live" class="st0">
	<g class="st1">
		<g>
			<path class="st2" d="M48,64.2H11.7c-2.9,0-5.3-2.4-5.3-5.3V9c0-2.9,2.4-5.3,5.3-5.3H48c2.9,0,5.3,2.4,5.3,5.3v49.9
				C53.3,61.9,50.9,64.2,48,64.2z"/>
		</g>
	</g>
	<g class="st1">
		<g>
			<g>
				<path class="st2" d="M45.9,56.7H31.2c-0.2,0-0.3-0.1-0.4-0.2l-4.1-4.2c-0.1-0.1-0.2-0.3-0.2-0.4V31.1c0-0.9,0.7-1.6,1.6-1.6
					h17.8c0.9,0,1.6,0.7,1.6,1.6v24.1C47.5,56,46.7,56.7,45.9,56.7z"/>
				<path class="st2" d="M26.6,52.2h3.7c0.3,0,0.6,0.3,0.6,0.6l0,3.3c0,0.2-0.2,0.3-0.4,0.2C30.4,56.3,26.6,52.2,26.6,52.2z"/>
				<line class="st2" x1="30.1" y1="40.1" x2="43.6" y2="40.1"/>
				<line class="st2" x1="30.1" y1="43.8" x2="43.6" y2="43.8"/>
				<line class="st2" x1="30.1" y1="47.4" x2="43.6" y2="47.4"/>
				<line class="st2" x1="34.9" y1="51" x2="43.6" y2="51"/>
				<path class="st2" d="M42.5,37.1H31.1c-0.6,0-1.1-0.5-1.1-1.1v-2.1c0-0.6,0.5-1.1,1.1-1.1h11.4c0.6,0,1.1,0.5,1.1,1.1V36
					C43.6,36.6,43.1,37.1,42.5,37.1z"/>
			</g>
		</g>
		<path class="st2" d="M26.5,44.3h-13c-0.7,0-1.2-0.5-1.2-1.2V17.2c0-0.7,0.5-1.2,1.2-1.2H18"/>
		<path class="st2" d="M29.9,16h4.5c0.7,0,1.2,0.5,1.2,1.2v12.2"/>
		<path class="st2" d="M27.7,13.8c-0.5,0-0.9-0.3-1.1-0.7c-0.4-1.1-1.4-1.8-2.6-1.8c-1.2,0-2.2,0.8-2.6,1.8
			c-0.2,0.5-0.6,0.7-1.1,0.7h-1.1c-0.7,0-1.2,0.5-1.2,1.2v2c0,0.7,0.5,1.2,1.2,1.2h9.6c0.7,0,1.2-0.5,1.2-1.2v-2
			c0-0.7-0.5-1.2-1.2-1.2H27.7z"/>
	</g>
</g>
<g id="Outlined">
	<g>
		<g>
			<path class="st3" d="M48,64.7H11.7c-3.2,0-5.8-2.6-5.8-5.8V9c0-3.2,2.6-5.8,5.8-5.8H48c3.2,0,5.8,2.6,5.8,5.8v49.9
				C53.8,62.1,51.2,64.7,48,64.7z M11.7,4.3C9.1,4.3,6.9,6.4,6.9,9v49.9c0,2.6,2.1,4.8,4.8,4.8H48c2.6,0,4.8-2.1,4.8-4.8V9
				c0-2.6-2.1-4.8-4.8-4.8H11.7z"/>
		</g>
	</g>
	<g>
		<g>
			<g>
				<path class="st3" d="M45.9,57.2H31.2c-0.3,0-0.6-0.1-0.8-0.3l-4.1-4.2c-0.2-0.2-0.3-0.5-0.3-0.8V31.1c0-1.2,1-2.1,2.1-2.1h17.8
					c1.2,0,2.1,1,2.1,2.1v24.1C48,56.3,47,57.2,45.9,57.2z M28.1,29.9c-0.6,0-1.1,0.5-1.1,1.1v20.9l4.1,4.3l14.8,0
					c0.6,0,1.1-0.5,1.1-1.1V31.1c0-0.6-0.5-1.1-1.1-1.1H28.1z"/>
			</g>
			<g>
				<path class="st3" d="M30.6,56.8c-0.2,0-0.4-0.1-0.5-0.2c-4.1-4.2-4.1-4.2-4-4.6l0.1-0.3h4c0.6,0,1.1,0.5,1.1,1.1l0,3.3
					c0,0.3-0.2,0.6-0.5,0.7C30.8,56.8,30.7,56.8,30.6,56.8z M27.8,52.7c0.7,0.7,1.7,1.8,2.6,2.7l0-2.6c0,0,0-0.1-0.1-0.1H27.8z"/>
			</g>
			<g>
				<rect x="30.1" y="39.6" class="st3" width="13.6" height="1"/>
			</g>
			<g>
				<rect x="30.1" y="43.3" class="st3" width="13.6" height="1"/>
			</g>
			<g>
				<rect x="30.1" y="46.9" class="st3" width="13.6" height="1"/>
			</g>
			<g>
				<rect x="34.9" y="50.5" class="st3" width="8.7" height="1"/>
			</g>
			<g>
				<path class="st3" d="M42.5,37.6H31.1c-0.9,0-1.6-0.7-1.6-1.6v-2.1c0-0.9,0.7-1.6,1.6-1.6h11.4c0.9,0,1.6,0.7,1.6,1.6V36
					C44.1,36.8,43.4,37.6,42.5,37.6z M31.1,33.3c-0.3,0-0.6,0.3-0.6,0.6V36c0,0.3,0.3,0.6,0.6,0.6h11.4c0.3,0,0.6-0.3,0.6-0.6v-2.1
					c0-0.3-0.3-0.6-0.6-0.6H31.1z"/>
			</g>
		</g>
		<g>
			<path class="st3" d="M26.5,44.8h-13c-0.9,0-1.7-0.8-1.7-1.7V17.2c0-0.9,0.8-1.7,1.7-1.7H18v1h-4.5c-0.4,0-0.7,0.3-0.7,0.7v25.9
				c0,0.4,0.3,0.7,0.7,0.7h13V44.8z"/>
		</g>
		<g>
			<path class="st3" d="M36.1,29.4h-1V17.2c0-0.4-0.3-0.7-0.7-0.7h-4.5v-1h4.5c0.9,0,1.7,0.8,1.7,1.7V29.4z"/>
		</g>
		<g>
			<path class="st3" d="M28.7,18.7h-9.6c-0.9,0-1.7-0.8-1.7-1.7v-2c0-0.9,0.8-1.7,1.7-1.7h1.1c0.3,0,0.5-0.2,0.6-0.4
				c0.5-1.3,1.7-2.2,3.1-2.2c1.4,0,2.6,0.9,3.1,2.2c0.1,0.2,0.3,0.4,0.6,0.4h1.1c0.9,0,1.7,0.8,1.7,1.7v2
				C30.4,17.9,29.7,18.7,28.7,18.7z M19.1,14.3c-0.4,0-0.7,0.3-0.7,0.7v2c0,0.4,0.3,0.7,0.7,0.7h9.6c0.4,0,0.7-0.3,0.7-0.7v-2
				c0-0.4-0.3-0.7-0.7-0.7h-1.1c-0.7,0-1.3-0.4-1.6-1.1c-0.3-0.9-1.2-1.5-2.1-1.5c-1,0-1.8,0.6-2.1,1.5c-0.2,0.6-0.9,1.1-1.6,1.1
				H19.1z"/>
		</g>
	</g>
</g>
</svg>
