<svg width="754" height="560" viewBox="0 0 754 560" fill="none" xmlns="http://www.w3.org/2000/svg">
<mask id="mask0_72_1166" style="mask-type:alpha" maskUnits="userSpaceOnUse" x="2" y="0" width="752" height="560">
<rect x="2" width="752" height="560" rx="16" fill="#C4C4C4"/>
</mask>
<g mask="url(#mask0_72_1166)">
<rect x="2" width="752" height="560" fill="url(#paint0_linear_72_1166)"/>
<rect x="2" width="752" height="560" fill="url(#paint1_linear_72_1166)"/>
<g filter="url(#filter0_d_72_1166)">
<rect x="56" y="80" width="640" height="400" rx="16" fill="white"/>
<path d="M82.0002 101.442H90.6409C98.8542 101.442 100.786 107.602 100.786 111.614C100.786 111.614 97.3381 104.318 88.1188 104.318C82.0002 104.317 82.0002 101.442 82.0002 101.442Z" fill="#061F2F"/>
<path d="M100.787 111.478V104.672C100.787 102.941 102.19 101.442 103.921 101.442H110.715C110.759 101.442 109.6 103.637 105.054 103.637C101.612 103.637 100.787 111.523 100.787 111.48V111.478Z" fill="#061F2F"/>
<path d="M128.76 98.6633V100.577C127.789 99.4554 127.088 99.6146 126.134 99.6146H122.074V105.669H127.973V106.619H122.074V114.336H119.757V98.6633H128.76Z" fill="#061F2F"/>
<path d="M148.53 107.876C148.53 108.209 148.507 108.54 148.458 108.778H140.363C140.386 111.651 141.843 113.574 144.065 113.574C145.666 113.574 147.121 112.648 147.862 111.057V113.503C146.668 114.263 145.331 114.571 143.922 114.571C140.365 114.571 138.072 112.174 138.072 108.683C138.072 105.191 140.363 102.817 143.564 102.817C146.765 102.817 148.532 104.955 148.532 107.874L148.53 107.876ZM143.562 103.815C141.675 103.815 140.386 105.572 140.386 107.827H146.5C146.548 105.31 145.329 103.815 143.562 103.815Z" fill="#061F2F"/>
<path d="M160.899 107.876C160.899 108.209 160.876 108.54 160.827 108.778H152.732C152.755 111.651 154.212 113.574 156.434 113.574C158.035 113.574 159.49 112.648 160.231 111.057V113.503C159.037 114.263 157.7 114.571 156.291 114.571C152.732 114.571 150.44 112.174 150.44 108.683C150.44 105.191 152.733 102.817 155.933 102.817C159.132 102.817 160.899 104.955 160.899 107.874V107.876ZM155.933 103.815C154.046 103.815 152.756 105.572 152.756 107.827H158.871C158.918 105.31 157.7 103.815 155.933 103.815Z" fill="#061F2F"/>
<path d="M167.824 114.572C165.293 114.572 162.81 112.624 162.81 108.683C162.81 105.218 164.912 102.818 167.801 102.818C169.639 102.818 171.191 103.814 171.861 105.335H171.884V101.394C171.884 99.9218 171.986 97.9558 171.029 97H173.986V111.009C173.986 112.315 173.811 113.241 174.648 114.332H171.884V112.051H171.861C171.168 113.618 169.593 114.568 167.826 114.568L167.824 114.57V114.572ZM164.983 108.683C164.983 111.366 166.177 113.242 168.325 113.242C170.473 113.242 171.956 111.365 171.956 108.659C171.956 105.954 170.476 104.124 168.325 104.124C166.174 104.124 164.983 106.001 164.983 108.682V108.683Z" fill="#061F2F"/>
<path d="M134.733 102.973C133.157 102.973 132.34 104.066 131.911 105.869H131.888V103.139H128.851C130.034 103.815 129.786 105.3 129.786 106.462V114.415H132.59C131.938 113.557 131.888 112.208 131.888 111.092V108.623C131.888 106.129 133.105 104.585 134.539 104.585C135.089 104.585 135.67 104.788 136.381 104.788C137.838 104.788 138.208 103.134 138.208 103.134C136.266 103.813 136.047 102.97 134.734 102.97L134.733 102.972V102.973Z" fill="#061F2F"/>
<line x1="80" y1="131.75" x2="672" y2="131.75" stroke="#061F2F" stroke-width="0.5"/>
<path d="M346.147 218H337.447V204H339.127V216.52H346.147V218ZM350.012 218H348.452V208.08H350.012V218ZM350.172 206.36H348.292V204.4H350.172V206.36ZM354.047 210.42C354.047 211.38 354.987 211.86 356.687 212.18C358.908 212.6 360.028 213.56 360.028 215.1C360.028 216 359.687 216.74 359.027 217.36C358.368 217.98 357.447 218.28 356.267 218.28C354.187 218.28 352.687 217.1 352.047 215.4L353.347 214.6C353.927 216.14 354.887 216.92 356.267 216.92C357.628 216.92 358.467 216.26 358.467 215.16C358.467 214.2 357.687 213.68 355.927 213.38C353.947 213 352.607 212.08 352.607 210.48C352.607 209.66 352.947 209.02 353.607 208.54C354.267 208.04 355.087 207.8 356.027 207.8C357.948 207.8 359.227 208.6 359.888 210.2L358.688 210.9C358.207 209.72 357.327 209.12 356.047 209.12C354.907 209.12 354.047 209.6 354.047 210.42ZM362.737 209.32H361.077V208.08H362.737V205.4H364.297V208.08H366.577V209.32H364.297V215.32C364.297 216.46 364.557 216.92 365.657 216.92C365.877 216.92 366.137 216.88 366.397 216.8L366.537 218.1C366.197 218.22 365.757 218.28 365.217 218.28C363.777 218.28 362.737 217.48 362.737 215.62V209.32ZM377.381 212.76V213.3H369.181C369.281 215.44 370.601 216.96 372.601 216.96C374.281 216.96 375.221 216.14 375.941 214.7L377.081 215.38C376.101 217.32 374.581 218.28 372.541 218.28C371.181 218.28 370.021 217.78 369.061 216.8C368.101 215.8 367.621 214.54 367.621 213.04C367.621 211.54 368.101 210.28 369.061 209.3C370.041 208.3 371.221 207.8 372.601 207.8C374.061 207.8 375.221 208.26 376.081 209.18C376.941 210.1 377.381 211.3 377.381 212.76ZM372.601 209.12C370.901 209.12 369.681 210.28 369.301 212.02H375.821C375.761 211.14 375.421 210.44 374.781 209.92C374.161 209.38 373.421 209.12 372.601 209.12ZM387.946 211.26V218H386.386V211.54C386.386 210.02 385.466 209.2 384.006 209.2C383.206 209.2 382.526 209.5 381.966 210.1C381.406 210.7 381.126 211.5 381.126 212.5V218H379.566V208.08H381.126V209.82C381.866 208.56 383.046 207.8 384.466 207.8C385.446 207.8 386.266 208.1 386.926 208.68C387.606 209.26 387.946 210.12 387.946 211.26ZM392.332 218H390.772V208.08H392.332V218ZM392.492 206.36H390.612V204.4H392.492V206.36ZM403.523 211.26V218H401.963V211.54C401.963 210.02 401.043 209.2 399.583 209.2C398.783 209.2 398.103 209.5 397.543 210.1C396.983 210.7 396.703 211.5 396.703 212.5V218H395.143V208.08H396.703V209.82C397.443 208.56 398.623 207.8 400.043 207.8C401.023 207.8 401.843 208.1 402.503 208.68C403.183 209.26 403.523 210.12 403.523 211.26ZM406.175 218.46L407.655 218.88C407.555 219.08 407.515 219.3 407.515 219.54C407.515 220.42 408.475 220.96 410.215 220.96C412.335 220.96 413.395 219.8 413.395 217.5V215.8C412.735 217.08 411.515 217.84 410.055 217.84C408.755 217.84 407.655 217.38 406.755 216.46C405.855 215.54 405.415 214.32 405.415 212.82C405.415 211.28 405.855 210.06 406.735 209.16C407.635 208.26 408.715 207.8 409.995 207.8C411.595 207.8 412.855 208.58 413.395 209.86V208.08H414.955V217.48C414.955 220.54 413.255 222.36 410.215 222.36C407.495 222.36 405.955 221.22 405.955 219.48C405.955 219.06 406.035 218.72 406.175 218.46ZM412.575 210.18C411.955 209.52 411.175 209.2 410.235 209.2C409.295 209.2 408.515 209.52 407.915 210.18C407.315 210.84 407.015 211.72 407.015 212.82C407.015 213.92 407.315 214.8 407.915 215.46C408.515 216.12 409.295 216.44 410.235 216.44C411.175 216.44 411.955 216.12 412.575 215.46C413.195 214.8 413.515 213.92 413.515 212.82C413.515 211.72 413.195 210.84 412.575 210.18Z" fill="#061F2F"/>
<mask id="mask1_72_1166" style="mask-type:alpha" maskUnits="userSpaceOnUse" x="256" y="237" width="240" height="70">
<rect x="317.63" y="253.968" width="3.68873" height="35.4118" rx="1.84437" fill="#061F2F"/>
<rect x="326.339" y="245.853" width="3.68873" height="51.6422" rx="1.84437" fill="#061F2F"/>
<rect x="335.048" y="237" width="3.68873" height="69.3481" rx="1.84437" fill="#061F2F"/>
<rect x="343.757" y="245.853" width="3.68873" height="51.6422" rx="1.84437" fill="#061F2F"/>
<rect x="352.467" y="256.181" width="3.68873" height="30.9853" rx="1.84437" fill="#061F2F"/>
<rect x="361.176" y="250.28" width="3.68873" height="42.7893" rx="1.84437" fill="#061F2F"/>
<rect x="369.885" y="243.64" width="3.68873" height="56.0687" rx="1.84437" fill="#061F2F"/>
<rect x="378.594" y="251.755" width="3.68873" height="39.8383" rx="1.84437" fill="#061F2F"/>
<rect x="387.303" y="256.181" width="3.68873" height="30.9853" rx="1.84437" fill="#061F2F"/>
<rect x="396.012" y="251.017" width="3.68873" height="41.3138" rx="1.84437" fill="#061F2F"/>
<rect x="404.721" y="243.64" width="3.68873" height="56.0687" rx="1.84437" fill="#061F2F"/>
<rect x="413.43" y="252.493" width="3.68873" height="38.3628" rx="1.84437" fill="#061F2F"/>
<rect x="422.139" y="258.395" width="3.68873" height="26.5589" rx="1.84437" fill="#061F2F"/>
<rect x="430.848" y="253.23" width="3.68873" height="36.8873" rx="1.84437" fill="#061F2F"/>
<rect x="439.558" y="246.591" width="3.68873" height="50.1667" rx="1.84437" fill="#061F2F"/>
<rect width="3.68873" height="50.1667" rx="1.84437" transform="matrix(-1 0 0 1 312.61 246.591)" fill="#061F2F"/>
<rect x="448.267" y="260.608" width="3.68873" height="22.1324" rx="1.84437" fill="#061F2F"/>
<rect width="3.68873" height="22.1324" rx="1.84437" transform="matrix(-1 0 0 1 303.901 260.608)" fill="#061F2F"/>
<rect x="456.976" y="265.772" width="3.68873" height="11.8039" rx="1.84437" fill="#061F2F"/>
<rect width="3.68873" height="11.8039" rx="1.84437" transform="matrix(-1 0 0 1 295.191 265.772)" fill="#061F2F"/>
<rect x="465.685" y="265.772" width="3.68873" height="11.8039" rx="1.84437" fill="#061F2F"/>
<rect width="3.68873" height="11.8039" rx="1.84437" transform="matrix(-1 0 0 1 286.482 265.772)" fill="#061F2F"/>
<rect x="474.394" y="262.083" width="3.68873" height="19.1814" rx="1.84437" fill="#061F2F"/>
<rect width="3.68873" height="19.1814" rx="1.84437" transform="matrix(-1 0 0 1 277.773 262.083)" fill="#061F2F"/>
<rect x="483.103" y="264.297" width="3.68873" height="14.7549" rx="1.84437" fill="#061F2F"/>
<rect width="3.68873" height="14.7549" rx="1.84437" transform="matrix(-1 0 0 1 269.064 264.297)" fill="#061F2F"/>
<rect x="491.812" y="265.772" width="3.68873" height="11.8039" rx="1.84437" fill="#061F2F"/>
<rect width="3.68873" height="11.8039" rx="1.84437" transform="matrix(-1 0 0 1 260.355 265.772)" fill="#061F2F"/>
</mask>
<g mask="url(#mask1_72_1166)">
<rect x="317.63" y="259.255" width="3.68873" height="31.8373" rx="1.84437" fill="#D9C7FF"/>
<rect x="326.339" y="251.959" width="3.68873" height="46.4295" rx="1.84437" fill="#D9C7FF"/>
<rect x="335.048" y="244" width="3.68873" height="62.3481" rx="1.84437" fill="#D9C7FF"/>
<rect x="343.758" y="251.959" width="3.68873" height="46.4295" rx="1.84437" fill="#D9C7FF"/>
<rect x="352.467" y="261.245" width="3.68873" height="27.8577" rx="1.84437" fill="#D9C7FF"/>
<rect x="361.176" y="255.939" width="3.68873" height="38.4701" rx="1.84437" fill="#D9C7FF"/>
<rect x="369.885" y="249.969" width="3.68873" height="50.4091" rx="1.84437" fill="#D9C7FF"/>
<rect x="378.594" y="257.266" width="3.68873" height="35.817" rx="1.84437" fill="#D9C7FF"/>
<rect x="387.303" y="261.245" width="3.68873" height="27.8577" rx="1.84437" fill="#D9C7FF"/>
<rect x="396.012" y="256.602" width="3.68873" height="37.1436" rx="1.84437" fill="#D9C7FF"/>
<rect x="404.721" y="249.969" width="3.68873" height="50.4091" rx="1.84437" fill="#D9C7FF"/>
<rect x="413.431" y="257.929" width="3.68873" height="34.4904" rx="1.84437" fill="#D9C7FF"/>
<rect x="422.14" y="263.235" width="3.68873" height="23.878" rx="1.84437" fill="#D9C7FF"/>
<rect x="430.849" y="258.592" width="3.68873" height="33.1639" rx="1.84437" fill="#D9C7FF"/>
<rect x="439.558" y="252.623" width="3.68873" height="45.1029" rx="1.84437" fill="#D9C7FF"/>
<rect width="3.68873" height="45.1029" rx="1.84437" transform="matrix(-1 0 0 1 312.61 252.623)" fill="#D9C7FF"/>
<rect x="448.267" y="265.225" width="3.68873" height="19.8983" rx="1.84437" fill="#D9C7FF"/>
<rect width="3.68873" height="19.8983" rx="1.84437" transform="matrix(-1 0 0 1 303.901 265.225)" fill="#D9C7FF"/>
<rect x="456.976" y="269.868" width="3.68873" height="10.6124" rx="1.84437" fill="#D9C7FF"/>
<rect width="3.68873" height="10.6124" rx="1.84437" transform="matrix(-1 0 0 1 295.192 269.868)" fill="#D9C7FF"/>
<rect x="465.685" y="269.868" width="3.68873" height="10.6124" rx="1.84437" fill="#D9C7FF"/>
<rect width="3.68873" height="10.6124" rx="1.84437" transform="matrix(-1 0 0 1 286.482 269.868)" fill="#D9C7FF"/>
<rect x="474.394" y="266.552" width="3.68873" height="17.2452" rx="1.84437" fill="#D9C7FF"/>
<rect width="3.68873" height="17.2452" rx="1.84437" transform="matrix(-1 0 0 1 277.773 266.552)" fill="#D9C7FF"/>
<rect x="483.104" y="268.541" width="3.68873" height="13.2656" rx="1.84437" fill="#D9C7FF"/>
<rect width="3.68873" height="13.2656" rx="1.84437" transform="matrix(-1 0 0 1 269.064 268.541)" fill="#D9C7FF"/>
<rect x="491.812" y="269.868" width="3.68873" height="10.6124" rx="1.84437" fill="#D9C7FF"/>
<rect width="3.68873" height="10.6124" rx="1.84437" transform="matrix(-1 0 0 1 260.355 269.868)" fill="#D9C7FF"/>
</g>
<rect x="292" y="338" width="120" height="40" rx="20" fill="#061F2F"/>
<mask id="mask2_72_1166" style="mask-type:alpha" maskUnits="userSpaceOnUse" x="308" y="346" width="24" height="24">
<rect x="308" y="346" width="24" height="24" fill="#D9D9D9"/>
</mask>
<g mask="url(#mask2_72_1166)">
<path d="M320 360C319.167 360 318.458 359.708 317.875 359.125C317.292 358.542 317 357.833 317 357V351C317 350.167 317.292 349.458 317.875 348.875C318.458 348.292 319.167 348 320 348C320.833 348 321.542 348.292 322.125 348.875C322.708 349.458 323 350.167 323 351V357C323 357.833 322.708 358.542 322.125 359.125C321.542 359.708 320.833 360 320 360ZM319 367V363.925C317.267 363.692 315.833 362.917 314.7 361.6C313.567 360.283 313 358.75 313 357H315C315 358.383 315.488 359.562 316.463 360.538C317.438 361.513 318.617 362 320 362C321.383 362 322.562 361.513 323.538 360.538C324.513 359.562 325 358.383 325 357H327C327 358.75 326.433 360.283 325.3 361.6C324.167 362.917 322.733 363.692 321 363.925V367H319ZM320 358C320.283 358 320.521 357.904 320.713 357.713C320.904 357.521 321 357.283 321 357V351C321 350.717 320.904 350.479 320.713 350.288C320.521 350.096 320.283 350 320 350C319.717 350 319.479 350.096 319.287 350.288C319.096 350.479 319 350.717 319 351V357C319 357.283 319.096 357.521 319.287 357.713C319.479 357.904 319.717 358 320 358Z" fill="#FFFBF4"/>
</g>
<path d="M342.528 362H336.972V353.6H342.492V354.752H338.268V357.08H342.156V358.232H338.268V360.848H342.528V362ZM345.286 362H344.038V353.6H345.358L349.126 359.456C349.318 359.756 349.438 359.972 349.486 360.092V353.6H350.734V362H349.414L345.646 356.144C345.442 355.844 345.322 355.628 345.286 355.508V362ZM354.982 362H352.558V353.6H354.982C356.302 353.6 357.37 353.972 358.186 354.704C359.002 355.436 359.41 356.468 359.41 357.8C359.41 359.132 359.002 360.176 358.186 360.908C357.37 361.64 356.302 362 354.982 362ZM353.854 360.824H355.006C356.89 360.824 358.09 359.78 358.09 357.8C358.09 355.82 356.89 354.776 355.006 354.776H353.854V360.824ZM367.792 362H366.448L363.34 353.6H364.708L366.808 359.468C366.94 359.888 367.036 360.236 367.12 360.536L367.432 359.468L369.532 353.6H370.9L367.792 362ZM373.014 362H371.718V353.6H373.014V362ZM376.024 355.652C376.024 356.408 376.696 356.828 378.22 357.128C380.056 357.476 380.932 358.244 380.932 359.636C380.932 360.344 380.644 360.944 380.08 361.436C379.516 361.928 378.784 362.168 377.86 362.168C375.94 362.168 374.704 361.1 374.416 359.516L375.556 358.928C375.796 360.332 376.564 361.04 377.848 361.04C378.916 361.04 379.636 360.44 379.636 359.684C379.636 358.832 379 358.436 377.5 358.148C375.82 357.812 374.8 357.02 374.8 355.676C374.8 355.016 375.064 354.476 375.604 354.056C376.144 353.636 376.828 353.432 377.68 353.432C379.204 353.432 380.32 354.188 380.788 355.52L379.756 356.12C379.408 355.076 378.712 354.56 377.668 354.56C376.744 354.56 376.024 354.968 376.024 355.652ZM383.737 362H382.441V353.6H383.737V362ZM387.511 354.776H384.919V353.6H391.399V354.776H388.807V362H387.511V354.776Z" fill="#FFFBF4"/>
<rect x="420" y="338" width="40" height="40" rx="20" fill="#061F2F"/>
<mask id="mask3_72_1166" style="mask-type:alpha" maskUnits="userSpaceOnUse" x="428" y="346" width="24" height="24">
<rect x="428" y="346" width="24" height="24" fill="#D9D9D9"/>
</mask>
<g mask="url(#mask3_72_1166)">
<path d="M442 364.5V350.5H446V364.5H442ZM434 364.5V350.5H438V364.5H434Z" fill="#FFFBF4"/>
</g>
</g>
</g>
<defs>
<filter id="filter0_d_72_1166" x="16" y="50" width="720" height="480" filterUnits="userSpaceOnUse" color-interpolation-filters="sRGB">
<feFlood flood-opacity="0" result="BackgroundImageFix"/>
<feColorMatrix in="SourceAlpha" type="matrix" values="0 0 0 0 0 0 0 0 0 0 0 0 0 0 0 0 0 0 127 0" result="hardAlpha"/>
<feOffset dy="10"/>
<feGaussianBlur stdDeviation="20"/>
<feComposite in2="hardAlpha" operator="out"/>
<feColorMatrix type="matrix" values="0 0 0 0 0.0235294 0 0 0 0 0.121569 0 0 0 0 0.184314 0 0 0 0.1 0"/>
<feBlend mode="normal" in2="BackgroundImageFix" result="effect1_dropShadow_72_1166"/>
<feBlend mode="normal" in="SourceGraphic" in2="effect1_dropShadow_72_1166" result="shape"/>
</filter>
<linearGradient id="paint0_linear_72_1166" x1="378" y1="0" x2="378" y2="560" gradientUnits="userSpaceOnUse">
<stop stop-color="white"/>
<stop offset="1" stop-color="#D9C7FF" stop-opacity="0.1"/>
</linearGradient>
<linearGradient id="paint1_linear_72_1166" x1="378" y1="588.5" x2="378" y2="-94" gradientUnits="userSpaceOnUse">
<stop stop-color="#EEF8FF"/>
<stop offset="1" stop-color="#D9C7FF"/>
</linearGradient>
</defs>
</svg>
