<?xml version="1.0" encoding="utf-8"?>
<!-- Generator: Adobe Illustrator 28.0.0, SVG Export Plug-In . SVG Version: 6.00 Build 0)  -->
<svg version="1.1" xmlns="http://www.w3.org/2000/svg" xmlns:xlink="http://www.w3.org/1999/xlink" x="0px" y="0px"
	 viewBox="0 0 62.4 68.3" style="enable-background:new 0 0 62.4 68.3;" xml:space="preserve">
<style type="text/css">
	.st0{display:none;}
	.st1{display:inline;}
	.st2{fill:none;stroke:#061F2F;stroke-miterlimit:10;}
	.st3{fill:#061F2F;}
</style>
<g id="Live" class="st0">
	<g class="st1">
		<g>
			<path class="st2" d="M51,64.6H18.3c-0.4,0-0.7-0.1-0.9-0.4l-9.2-9.4c-0.2-0.2-0.4-0.6-0.4-0.9V7.4c0-2,1.6-3.6,3.6-3.6H51
				c2,0,3.6,1.6,3.6,3.6V61C54.6,63,53,64.6,51,64.6z"/>
			<path class="st2" d="M8.1,54.6h8.2c0.7,0,1.3,0.6,1.3,1.3v8.4c0,0-0.1,0.1-0.1,0L8.1,54.6C8,54.6,8.1,54.6,8.1,54.6z"/>
			<line class="st2" x1="15.8" y1="17.8" x2="46" y2="17.8"/>
			<line class="st2" x1="15.8" y1="25.9" x2="46" y2="25.9"/>
			<line class="st2" x1="15.8" y1="34" x2="46" y2="34"/>
			<line class="st2" x1="15.8" y1="42" x2="46" y2="42"/>
			<line class="st2" x1="26.6" y1="50.1" x2="46" y2="50.1"/>
		</g>
	</g>
</g>
<g id="Outlined">
	<g>
		<g>
			<path class="st3" d="M51,65.1H18.3c-0.5,0-1-0.2-1.3-0.5l-9.2-9.4c-0.3-0.3-0.5-0.8-0.5-1.3V7.4c0-2.3,1.8-4.1,4.1-4.1H51
				c2.3,0,4.1,1.8,4.1,4.1V61C55.1,63.2,53.3,65.1,51,65.1z M11.4,4.3c-1.7,0-3.1,1.4-3.1,3.1v46.5c0,0.2,0.1,0.4,0.2,0.6l9.2,9.4
				c0.2,0.2,0.4,0.2,0.6,0.2H51c1.7,0,3.1-1.4,3.1-3.1V7.4c0-1.7-1.4-3.1-3.1-3.1H11.4z"/>
		</g>
		<g>
			<path class="st3" d="M17.5,65l-0.3-0.3l-9.7-9.9l0.2-0.7l0.4,0h8.2c1,0,1.8,0.8,1.8,1.8v8.8L17.5,65z M9.2,55.1l8,8.2v-7.3
				c0-0.5-0.4-0.8-0.8-0.8H9.2z"/>
		</g>
		<g>
			<rect x="15.8" y="17.3" class="st3" width="30.2" height="1"/>
		</g>
		<g>
			<rect x="15.8" y="25.4" class="st3" width="30.2" height="1"/>
		</g>
		<g>
			<rect x="15.8" y="33.5" class="st3" width="30.2" height="1"/>
		</g>
		<g>
			<rect x="15.8" y="41.5" class="st3" width="30.2" height="1"/>
		</g>
		<g>
			<rect x="26.6" y="49.6" class="st3" width="19.4" height="1"/>
		</g>
	</g>
</g>
</svg>
