<?xml version="1.0" encoding="utf-8"?>
<!-- Generator: Adobe Illustrator 28.0.0, SVG Export Plug-In . SVG Version: 6.00 Build 0)  -->
<svg version="1.1" xmlns="http://www.w3.org/2000/svg" xmlns:xlink="http://www.w3.org/1999/xlink" x="0px" y="0px"
	 viewBox="0 0 62.4 68.3" style="enable-background:new 0 0 62.4 68.3;" xml:space="preserve">
<style type="text/css">
	.st0{display:none;}
	.st1{display:inline;}
	.st2{fill:none;stroke:#061F2F;stroke-miterlimit:10;}
	.st3{fill:#061F2F;}
</style>
<g id="Live" class="st0">
	<g class="st1">
		<g>
			<path class="st2" d="M49.3,64.2H13.1c-2.9,0-5.3-2.4-5.3-5.3V9c0-2.9,2.4-5.3,5.3-5.3h36.3c2.9,0,5.3,2.4,5.3,5.3v49.9
				C54.6,61.9,52.3,64.2,49.3,64.2z"/>
			<path class="st2" d="M15.9,64.6V43.4c0-5.2,4.2-9.4,9.4-9.4h11.8c5.2,0,9.4,4.2,9.4,9.4v21.2"/>
			<circle class="st2" cx="31.2" cy="21.1" r="7.9"/>
		</g>
	</g>
</g>
<g id="Outlined">
	<g>
		<g>
			<path class="st3" d="M49.3,64.7H13.1c-3.2,0-5.8-2.6-5.8-5.8V9c0-3.2,2.6-5.8,5.8-5.8h36.3c3.2,0,5.8,2.6,5.8,5.8v49.9
				C55.1,62.1,52.5,64.7,49.3,64.7z M13.1,4.3c-2.6,0-4.8,2.1-4.8,4.8v49.9c0,2.6,2.1,4.8,4.8,4.8h36.3c2.6,0,4.8-2.1,4.8-4.8V9
				c0-2.6-2.1-4.8-4.8-4.8H13.1z"/>
		</g>
		<g>
			<path class="st3" d="M47,64.6h-1V43.4c0-4.9-4-8.9-8.9-8.9H25.3c-4.9,0-8.9,4-8.9,8.9v21.2h-1V43.4c0-5.5,4.4-9.9,9.9-9.9h11.8
				c5.5,0,9.9,4.4,9.9,9.9V64.6z"/>
		</g>
		<g>
			<path class="st3" d="M31.2,29.5c-4.6,0-8.4-3.8-8.4-8.4s3.8-8.4,8.4-8.4s8.4,3.8,8.4,8.4S35.9,29.5,31.2,29.5z M31.2,13.7
				c-4.1,0-7.4,3.3-7.4,7.4s3.3,7.4,7.4,7.4s7.4-3.3,7.4-7.4S35.3,13.7,31.2,13.7z"/>
		</g>
	</g>
</g>
</svg>
